<svg width="869" height="98" viewBox="0 0 869 98" fill="none" xmlns="http://www.w3.org/2000/svg">
<path d="M851.832 8.1695L849.435 8.54801C848.972 8.65315 848.626 8.82137 848.394 9.05268C848.163 9.26296 848.047 9.55736 848.047 9.93586V46.9978C848.047 47.6497 848.247 48.1228 848.647 48.4172C849.046 48.7116 849.666 48.8588 850.508 48.8588H857.636C858.772 48.8588 859.76 48.6906 860.601 48.3541C861.442 48.0177 862.21 47.4289 862.904 46.5877C863.618 45.7466 864.323 44.5375 865.017 42.9604L867.099 38.1976C867.246 37.9032 867.414 37.7034 867.603 37.5983C867.793 37.4721 868.024 37.4405 868.297 37.5036C868.592 37.5457 868.791 37.6719 868.897 37.8821C869.023 38.0924 869.033 38.3763 868.928 38.7338L866.184 50.4043C866.058 50.888 865.89 51.2349 865.679 51.4452C865.49 51.6555 865.227 51.7607 864.891 51.7607C864.575 51.7607 864.249 51.666 863.913 51.4768C863.597 51.2875 863.219 51.0983 862.777 50.909C862.336 50.7408 861.779 50.6567 861.106 50.6567H837.418C837.039 50.6567 836.766 50.5831 836.598 50.4359C836.429 50.2887 836.345 50.0994 836.345 49.8681C836.345 49.4265 836.629 49.1321 837.197 48.9849L839.594 48.6064C840.057 48.5013 840.404 48.3436 840.635 48.1333C840.887 47.902 841.013 47.5971 841.013 47.2186V9.93586C841.013 9.55736 840.887 9.26296 840.635 9.05268C840.404 8.82137 840.057 8.65315 839.594 8.54801L837.197 8.1695C836.629 8.02231 836.345 7.72791 836.345 7.28632C836.345 7.03399 836.429 6.84474 836.598 6.71857C836.766 6.57137 837.039 6.49777 837.418 6.49777H851.643C852.001 6.49777 852.263 6.57137 852.432 6.71857C852.621 6.84474 852.715 7.03399 852.715 7.28632C852.715 7.72791 852.421 8.02231 851.832 8.1695Z" fill="#BF9B5F"/>
<path d="M780.114 33.277H798.061L798.219 35.1695H779.862L780.114 33.277ZM782.29 49.8681C782.29 50.0994 782.206 50.2887 782.038 50.4359C781.87 50.5831 781.596 50.6567 781.218 50.6567H771.724C771.366 50.6567 771.093 50.5831 770.904 50.4359C770.735 50.2887 770.651 50.0994 770.651 49.8681C770.651 49.6999 770.704 49.5527 770.809 49.4265C770.935 49.3004 771.156 49.1742 771.471 49.048L772.765 48.638C773.353 48.4067 773.848 48.0492 774.247 47.5656C774.647 47.0609 775.036 46.1882 775.414 44.9476L786.422 10.6298C786.654 9.91483 786.685 9.37862 786.517 9.02114C786.349 8.66366 785.897 8.3903 785.161 8.20104C784.74 8.07488 784.435 7.93819 784.246 7.791C784.057 7.6438 783.962 7.46506 783.962 7.25478C783.962 7.00245 784.057 6.8132 784.246 6.68703C784.435 6.56086 784.719 6.49777 785.098 6.49777H796.989C797.367 6.49777 797.641 6.56086 797.809 6.68703C797.977 6.8132 798.061 7.00245 798.061 7.25478C798.061 7.46506 797.977 7.65432 797.809 7.82254C797.641 7.96974 797.346 8.0959 796.926 8.20104C796.337 8.30618 795.98 8.47441 795.853 8.70572C795.748 8.916 795.78 9.30502 795.948 9.87277L808.123 46.5562C808.376 47.3132 808.691 47.8705 809.07 48.2279C809.448 48.5854 809.974 48.8272 810.647 48.9534C811.046 49.0585 811.309 49.1847 811.435 49.3319C811.582 49.4581 811.656 49.6368 811.656 49.8681C811.656 50.0994 811.561 50.2887 811.372 50.4359C811.204 50.5831 810.931 50.6567 810.552 50.6567H798.282C797.925 50.6567 797.651 50.5831 797.462 50.4359C797.294 50.2887 797.21 50.0994 797.21 49.8681C797.21 49.6578 797.283 49.4896 797.431 49.3635C797.578 49.2373 797.799 49.1321 798.093 49.048L800.112 48.7642C800.637 48.638 800.921 48.4172 800.963 48.1018C801.026 47.7864 800.953 47.3027 800.742 46.6508L788.504 9.24193L789.293 8.54801L777.717 44.7583C777.485 45.5363 777.401 46.1777 777.464 46.6824C777.528 47.187 777.738 47.5971 778.095 47.9125C778.474 48.2279 779 48.4908 779.672 48.7011L781.439 49.0796C781.733 49.1637 781.943 49.2688 782.07 49.395C782.217 49.5001 782.29 49.6578 782.29 49.8681Z" fill="#BF9B5F"/>
<path d="M719.737 6.49779H743.614C744.203 6.49779 744.687 6.40316 745.065 6.21391C745.465 6.02466 745.812 5.83541 746.106 5.64615C746.422 5.4569 746.726 5.36227 747.021 5.36227C747.378 5.36227 747.662 5.4569 747.872 5.64615C748.083 5.83541 748.251 6.17185 748.377 6.6555L750.459 17.0644C750.543 17.4219 750.522 17.7163 750.396 17.9476C750.291 18.1578 750.101 18.2945 749.828 18.3576C749.555 18.3997 749.313 18.3681 749.103 18.263C748.892 18.1368 748.714 17.916 748.566 17.6006C747.515 14.9721 746.579 12.9955 745.759 11.6707C744.939 10.3459 744.108 9.46275 743.267 9.02116C742.426 8.57957 741.438 8.35877 740.302 8.35877H735.287V47.2186C735.287 47.5971 735.403 47.902 735.634 48.1333C735.865 48.3436 736.212 48.5013 736.675 48.6065L739.072 48.985C739.64 49.1322 739.924 49.4266 739.924 49.8681C739.924 50.3938 739.577 50.6567 738.883 50.6567H724.658C724.279 50.6567 724.006 50.5831 723.838 50.4359C723.669 50.2887 723.585 50.0995 723.585 49.8681C723.585 49.4266 723.869 49.1322 724.437 48.985L726.834 48.6065C727.297 48.5013 727.644 48.3436 727.875 48.1333C728.127 47.902 728.253 47.5971 728.253 47.2186V8.35877H723.207C722.071 8.35877 721.083 8.59008 720.242 9.0527C719.401 9.51532 718.57 10.409 717.75 11.7338C716.93 13.0585 715.994 15.0142 714.943 17.6006C714.817 17.916 714.638 18.1368 714.406 18.263C714.196 18.3681 713.965 18.3997 713.713 18.3576C713.418 18.2945 713.218 18.1578 713.113 17.9476C713.008 17.7163 712.987 17.4219 713.05 17.0644L715.163 6.6555C715.269 6.17185 715.426 5.83541 715.637 5.64615C715.847 5.4569 716.131 5.36227 716.488 5.36227C716.783 5.36227 717.066 5.4569 717.34 5.64615C717.613 5.83541 717.939 6.02466 718.318 6.21391C718.696 6.40316 719.169 6.49779 719.737 6.49779Z" fill="#BF9B5F"/>
<path d="M686.486 21.6064C686.486 23.6882 686.034 25.5702 685.13 27.2525C684.225 28.9137 682.943 30.3015 681.282 31.416C679.62 32.5095 677.654 33.256 675.383 33.6555C674.794 33.7606 674.227 33.8658 673.68 33.9709C673.133 34.055 672.576 34.1391 672.008 34.2233C671.461 34.2863 670.862 34.3179 670.21 34.3179C668.822 34.3179 667.508 34.2233 666.268 34.034C665.027 33.8448 663.891 33.5714 662.861 33.2139C661.852 32.8354 660.969 32.3728 660.212 31.8261L660.464 30.2174C661.137 30.7011 661.925 31.1111 662.83 31.4476C663.734 31.763 664.701 32.0048 665.731 32.173C666.783 32.3202 667.834 32.3938 668.886 32.3938C672.103 32.3938 674.626 31.4791 676.456 29.6497C678.306 27.8202 679.231 25.1602 679.231 21.6695C679.231 19.062 678.674 16.7489 677.56 14.7303C676.445 12.6905 674.868 11.0924 672.828 9.93586C670.81 8.77932 668.433 8.20104 665.7 8.20104H662.199V47.124C662.199 47.5235 662.304 47.8494 662.514 48.1018C662.724 48.3331 663.05 48.5013 663.492 48.6064L666.362 48.9849C666.699 49.0901 666.919 49.2057 667.025 49.3319C667.151 49.4581 667.214 49.6368 667.214 49.8681C667.214 50.3938 666.867 50.6567 666.173 50.6567H651.569C651.191 50.6567 650.917 50.5831 650.749 50.4359C650.581 50.2887 650.497 50.0994 650.497 49.8681C650.497 49.4265 650.78 49.1321 651.348 48.9849L653.745 48.6064C654.208 48.5013 654.555 48.3331 654.786 48.1018C655.039 47.8494 655.165 47.5235 655.165 47.124V9.93586C655.165 9.55736 655.039 9.26296 654.786 9.05268C654.555 8.82137 654.208 8.65315 653.745 8.54801L651.348 8.1695C650.78 8.02231 650.497 7.72791 650.497 7.28632C650.497 7.03399 650.581 6.84474 650.749 6.71857C650.917 6.57137 651.191 6.49777 651.569 6.49777H665.858C670.252 6.49777 673.985 7.13913 677.055 8.42184C680.125 9.70455 682.459 11.4814 684.057 13.7524C685.676 16.0235 686.486 18.6415 686.486 21.6064ZM670.368 33.4662L677.213 32.6462L686.139 46.7455C686.581 47.4394 687.054 47.9441 687.558 48.2595C688.084 48.5749 688.725 48.8062 689.482 48.9534C689.987 49.0796 690.313 49.2057 690.46 49.3319C690.628 49.4581 690.713 49.6368 690.713 49.8681C690.713 50.0994 690.618 50.2887 690.429 50.4359C690.261 50.5831 689.987 50.6567 689.609 50.6567H677.181C676.466 50.6567 676.109 50.3938 676.109 49.8681C676.109 49.6999 676.161 49.5632 676.266 49.4581C676.393 49.3529 676.582 49.2583 676.834 49.1742L678.19 48.9534C678.674 48.8062 678.947 48.5854 679.011 48.291C679.074 47.9756 678.937 47.534 678.601 46.9663L670.368 33.4662Z" fill="#BF9B5F"/>
<path d="M602.33 5.61459C605.568 5.61459 608.512 6.18235 611.162 7.31787C613.832 8.45338 616.135 10.062 618.07 12.1438C620.004 14.2046 621.487 16.6438 622.517 19.4616C623.568 22.2793 624.094 25.3704 624.094 28.7349C624.094 32.0994 623.568 35.18 622.517 37.9768C621.466 40.7735 619.973 43.1917 618.038 45.2314C616.124 47.2712 613.832 48.8483 611.162 49.9628C608.491 51.0562 605.537 51.6029 602.299 51.6029C599.081 51.6029 596.148 51.0352 593.498 49.8997C590.849 48.7642 588.557 47.166 586.622 45.1053C584.709 43.0235 583.226 40.5632 582.175 37.7244C581.123 34.8856 580.598 31.7735 580.598 28.388C580.598 25.0445 581.123 21.9849 582.175 19.2092C583.226 16.4125 584.709 14.0048 586.622 11.9861C588.557 9.94637 590.849 8.37978 593.498 7.28632C596.169 6.17184 599.113 5.61459 602.33 5.61459ZM616.871 33.0877C616.871 30.249 616.598 27.5574 616.051 25.013C615.504 22.4475 614.737 20.1134 613.748 18.0106C612.76 15.8868 611.582 14.0468 610.216 12.4908C608.87 10.9347 607.377 9.73609 605.737 8.89497C604.117 8.05385 602.393 7.63329 600.564 7.63329C598.061 7.63329 595.853 8.28516 593.94 9.5889C592.026 10.8716 590.533 12.7326 589.461 15.1718C588.41 17.6111 587.884 20.5655 587.884 24.0352C587.884 26.895 588.147 29.6181 588.672 32.2046C589.219 34.77 589.987 37.1146 590.975 39.2384C591.963 41.3623 593.13 43.2022 594.476 44.7583C595.843 46.3144 597.336 47.513 598.955 48.3541C600.595 49.1952 602.32 49.6158 604.128 49.6158C606.672 49.6158 608.891 48.9744 610.783 47.6917C612.697 46.388 614.19 44.506 615.262 42.0457C616.335 39.5854 616.871 36.5994 616.871 33.0877Z" fill="#BF9B5F"/>
<path d="M555.67 22.4896C555.67 25.2443 554.997 27.6415 553.651 29.6812C552.327 31.7209 550.466 33.298 548.068 34.4125C545.692 35.527 542.927 36.0842 539.773 36.0842C537.607 36.0842 535.599 35.8529 533.748 35.3903C531.919 34.9067 530.3 34.2022 528.891 33.277L529.206 31.6999C530.026 32.2676 530.92 32.7303 531.887 33.0877C532.855 33.4452 533.854 33.7186 534.884 33.9078C535.914 34.0761 536.934 34.1602 537.943 34.1602C540.067 34.1602 541.928 33.687 543.526 32.7408C545.146 31.7735 546.407 30.4067 547.311 28.6403C548.216 26.874 548.668 24.7711 548.668 22.3319C548.668 19.4511 548.1 16.9592 546.964 14.8564C545.85 12.7536 544.273 11.1345 542.233 9.99894C540.193 8.8424 537.796 8.26413 535.042 8.26413H531.667V47.2186C531.667 47.5761 531.782 47.881 532.014 48.1333C532.245 48.3646 532.581 48.5118 533.023 48.5749L536.209 48.9849C536.524 49.048 536.745 49.1532 536.871 49.3004C537.018 49.4265 537.092 49.6158 537.092 49.8681C537.092 50.0994 537.008 50.2887 536.84 50.4359C536.671 50.5831 536.408 50.6567 536.051 50.6567H521.069C520.69 50.6567 520.417 50.5831 520.248 50.4359C520.08 50.2887 519.996 50.0994 519.996 49.8681C519.996 49.4265 520.28 49.1321 520.848 48.9849L523.308 48.5749C523.75 48.4908 524.076 48.3331 524.286 48.1018C524.517 47.8705 524.633 47.5761 524.633 47.2186V9.9674C524.633 9.5889 524.517 9.28399 524.286 9.05268C524.076 8.82137 523.76 8.66366 523.34 8.57955L520.816 8.1695C520.269 8.02231 519.996 7.72791 519.996 7.28632C519.996 7.03399 520.08 6.84474 520.248 6.71857C520.417 6.57137 520.68 6.49777 521.037 6.49777H535.168C539.373 6.49777 543.011 7.18118 546.081 8.54801C549.151 9.8938 551.517 11.7758 553.178 14.194C554.839 16.5912 555.67 19.3564 555.67 22.4896Z" fill="#BF9B5F"/>
<path d="M430.163 33.277H448.111L448.268 35.1695H429.911L430.163 33.277ZM432.34 49.8681C432.34 50.0994 432.256 50.2887 432.087 50.4359C431.919 50.5831 431.646 50.6567 431.267 50.6567H421.773C421.416 50.6567 421.142 50.5831 420.953 50.4359C420.785 50.2887 420.701 50.0994 420.701 49.8681C420.701 49.6999 420.753 49.5527 420.858 49.4265C420.985 49.3004 421.205 49.1742 421.521 49.048L422.814 48.638C423.403 48.4067 423.897 48.0492 424.296 47.5656C424.696 47.0609 425.085 46.1882 425.464 44.9476L436.472 10.6298C436.703 9.91483 436.735 9.37862 436.566 9.02114C436.398 8.66366 435.946 8.3903 435.21 8.20104C434.789 8.07488 434.485 7.93819 434.295 7.791C434.106 7.6438 434.011 7.46506 434.011 7.25478C434.011 7.00245 434.106 6.8132 434.295 6.68703C434.485 6.56086 434.768 6.49777 435.147 6.49777H447.038C447.417 6.49777 447.69 6.56086 447.858 6.68703C448.027 6.8132 448.111 7.00245 448.111 7.25478C448.111 7.46506 448.027 7.65432 447.858 7.82254C447.69 7.96974 447.396 8.0959 446.975 8.20104C446.386 8.30618 446.029 8.47441 445.903 8.70572C445.798 8.916 445.829 9.30502 445.997 9.87277L458.173 46.5562C458.425 47.3132 458.74 47.8705 459.119 48.2279C459.497 48.5854 460.023 48.8272 460.696 48.9534C461.095 49.0585 461.358 49.1847 461.484 49.3319C461.632 49.4581 461.705 49.6368 461.705 49.8681C461.705 50.0994 461.611 50.2887 461.421 50.4359C461.253 50.5831 460.98 50.6567 460.601 50.6567H448.331C447.974 50.6567 447.701 50.5831 447.511 50.4359C447.343 50.2887 447.259 50.0994 447.259 49.8681C447.259 49.6578 447.333 49.4896 447.48 49.3635C447.627 49.2373 447.848 49.1321 448.142 49.048L450.161 48.7642C450.687 48.638 450.97 48.4172 451.013 48.1018C451.076 47.7864 451.002 47.3027 450.792 46.6508L438.553 9.24193L439.342 8.54801L427.766 44.7583C427.535 45.5363 427.451 46.1777 427.514 46.6824C427.577 47.187 427.787 47.5971 428.145 47.9125C428.523 48.2279 429.049 48.4908 429.722 48.7011L431.488 49.0796C431.782 49.1637 431.993 49.2688 432.119 49.395C432.266 49.5001 432.34 49.6578 432.34 49.8681Z" fill="#EAE5E1"/>
<path d="M369.787 6.49779H393.664C394.253 6.49779 394.736 6.40316 395.115 6.21391C395.514 6.02466 395.861 5.83541 396.156 5.64615C396.471 5.4569 396.776 5.36227 397.07 5.36227C397.428 5.36227 397.712 5.4569 397.922 5.64615C398.132 5.83541 398.301 6.17185 398.427 6.6555L400.508 17.0644C400.593 17.4219 400.572 17.7163 400.445 17.9476C400.34 18.1578 400.151 18.2945 399.878 18.3576C399.604 18.3997 399.362 18.3681 399.152 18.263C398.942 18.1368 398.763 17.916 398.616 17.6006C397.565 14.9721 396.629 12.9955 395.809 11.6707C394.989 10.3459 394.158 9.46275 393.317 9.02116C392.476 8.57957 391.487 8.35877 390.352 8.35877H385.337V47.2186C385.337 47.5971 385.452 47.902 385.684 48.1333C385.915 48.3436 386.262 48.5013 386.725 48.6065L389.122 48.985C389.69 49.1322 389.973 49.4266 389.973 49.8681C389.973 50.3938 389.626 50.6567 388.933 50.6567H374.707C374.329 50.6567 374.055 50.5831 373.887 50.4359C373.719 50.2887 373.635 50.0995 373.635 49.8681C373.635 49.4266 373.919 49.1322 374.486 48.985L376.884 48.6065C377.346 48.5013 377.693 48.3436 377.924 48.1333C378.177 47.902 378.303 47.5971 378.303 47.2186V8.35877H373.256C372.121 8.35877 371.132 8.59008 370.291 9.0527C369.45 9.51532 368.62 10.409 367.799 11.7338C366.979 13.0585 366.044 15.0142 364.992 17.6006C364.866 17.916 364.687 18.1368 364.456 18.263C364.246 18.3681 364.014 18.3997 363.762 18.3576C363.468 18.2945 363.268 18.1578 363.163 17.9476C363.058 17.7163 363.037 17.4219 363.1 17.0644L365.213 6.6555C365.318 6.17185 365.476 5.83541 365.686 5.64615C365.896 5.4569 366.18 5.36227 366.538 5.36227C366.832 5.36227 367.116 5.4569 367.389 5.64615C367.663 5.83541 367.989 6.02466 368.367 6.21391C368.746 6.40316 369.219 6.49779 369.787 6.49779Z" fill="#EAE5E1"/>
<path d="M311.09 33.277H329.037L329.195 35.1695H310.837L311.09 33.277ZM313.266 49.8681C313.266 50.0994 313.182 50.2887 313.014 50.4359C312.845 50.5831 312.572 50.6567 312.194 50.6567H302.699C302.342 50.6567 302.069 50.5831 301.879 50.4359C301.711 50.2887 301.627 50.0994 301.627 49.8681C301.627 49.6999 301.68 49.5527 301.785 49.4265C301.911 49.3004 302.132 49.1742 302.447 49.048L303.74 48.638C304.329 48.4067 304.823 48.0492 305.223 47.5656C305.622 47.0609 306.011 46.1882 306.39 44.9476L317.398 10.6298C317.629 9.91483 317.661 9.37862 317.493 9.02114C317.324 8.66366 316.872 8.3903 316.136 8.20104C315.716 8.07488 315.411 7.93819 315.222 7.791C315.032 7.6438 314.938 7.46506 314.938 7.25478C314.938 7.00245 315.032 6.8132 315.222 6.68703C315.411 6.56086 315.695 6.49777 316.073 6.49777H327.965C328.343 6.49777 328.616 6.56086 328.785 6.68703C328.953 6.8132 329.037 7.00245 329.037 7.25478C329.037 7.46506 328.953 7.65432 328.785 7.82254C328.616 7.96974 328.322 8.0959 327.901 8.20104C327.313 8.30618 326.955 8.47441 326.829 8.70572C326.724 8.916 326.755 9.30502 326.924 9.87277L339.099 46.5562C339.351 47.3132 339.667 47.8705 340.045 48.2279C340.424 48.5854 340.949 48.8272 341.622 48.9534C342.022 49.0585 342.285 49.1847 342.411 49.3319C342.558 49.4581 342.632 49.6368 342.632 49.8681C342.632 50.0994 342.537 50.2887 342.348 50.4359C342.179 50.5831 341.906 50.6567 341.528 50.6567H329.258C328.9 50.6567 328.627 50.5831 328.438 50.4359C328.269 50.2887 328.185 50.0994 328.185 49.8681C328.185 49.6578 328.259 49.4896 328.406 49.3635C328.553 49.2373 328.774 49.1321 329.068 49.048L331.087 48.7642C331.613 48.638 331.897 48.4172 331.939 48.1018C332.002 47.7864 331.928 47.3027 331.718 46.6508L319.48 9.24193L320.268 8.54801L308.692 44.7583C308.461 45.5363 308.377 46.1777 308.44 46.6824C308.503 47.187 308.713 47.5971 309.071 47.9125C309.449 48.2279 309.975 48.4908 310.648 48.7011L312.414 49.0796C312.709 49.1637 312.919 49.2688 313.045 49.395C313.192 49.5001 313.266 49.6578 313.266 49.8681Z" fill="#EAE5E1"/>
<path d="M276.044 21.6064C276.044 23.6882 275.591 25.5702 274.687 27.2525C273.783 28.9137 272.5 30.3015 270.839 31.416C269.178 32.5095 267.212 33.256 264.941 33.6555C264.352 33.7606 263.784 33.8658 263.238 33.9709C262.691 34.055 262.134 34.1391 261.566 34.2233C261.019 34.2863 260.42 34.3179 259.768 34.3179C258.38 34.3179 257.066 34.2233 255.825 34.034C254.585 33.8448 253.449 33.5714 252.419 33.2139C251.409 32.8354 250.526 32.3728 249.769 31.8261L250.021 30.2174C250.694 30.7011 251.483 31.1111 252.387 31.4476C253.291 31.763 254.259 32.0048 255.289 32.173C256.34 32.3202 257.392 32.3938 258.443 32.3938C261.66 32.3938 264.184 31.4791 266.013 29.6497C267.864 27.8202 268.789 25.1602 268.789 21.6695C268.789 19.062 268.232 16.7489 267.117 14.7303C266.003 12.6905 264.426 11.0924 262.386 9.93586C260.367 8.77932 257.991 8.20104 255.257 8.20104H251.756V47.124C251.756 47.5235 251.861 47.8494 252.072 48.1018C252.282 48.3331 252.608 48.5013 253.049 48.6064L255.92 48.9849C256.256 49.0901 256.477 49.2057 256.582 49.3319C256.708 49.4581 256.771 49.6368 256.771 49.8681C256.771 50.3938 256.424 50.6567 255.731 50.6567H241.127C240.748 50.6567 240.475 50.5831 240.307 50.4359C240.138 50.2887 240.054 50.0994 240.054 49.8681C240.054 49.4265 240.338 49.1321 240.906 48.9849L243.303 48.6064C243.766 48.5013 244.113 48.3331 244.344 48.1018C244.596 47.8494 244.722 47.5235 244.722 47.124V9.93586C244.722 9.55736 244.596 9.26296 244.344 9.05268C244.113 8.82137 243.766 8.65315 243.303 8.54801L240.906 8.1695C240.338 8.02231 240.054 7.72791 240.054 7.28632C240.054 7.03399 240.138 6.84474 240.307 6.71857C240.475 6.57137 240.748 6.49777 241.127 6.49777H255.415C259.81 6.49777 263.542 7.13913 266.613 8.42184C269.683 9.70455 272.017 11.4814 273.615 13.7524C275.234 16.0235 276.044 18.6415 276.044 21.6064ZM259.926 33.4662L266.77 32.6462L275.697 46.7455C276.138 47.4394 276.611 47.9441 277.116 48.2595C277.642 48.5749 278.283 48.8062 279.04 48.9534C279.545 49.0796 279.871 49.2057 280.018 49.3319C280.186 49.4581 280.27 49.6368 280.27 49.8681C280.27 50.0994 280.176 50.2887 279.986 50.4359C279.818 50.5831 279.545 50.6567 279.166 50.6567H266.739C266.024 50.6567 265.666 50.3938 265.666 49.8681C265.666 49.6999 265.719 49.5632 265.824 49.4581C265.95 49.3529 266.139 49.2583 266.392 49.1742L267.748 48.9534C268.232 48.8062 268.505 48.5854 268.568 48.291C268.631 47.9756 268.495 47.534 268.158 46.9663L259.926 33.4662Z" fill="#EAE5E1"/>
<path d="M183.814 6.49779H207.692C208.28 6.49779 208.764 6.40316 209.143 6.21391C209.542 6.02466 209.889 5.83541 210.184 5.64615C210.499 5.4569 210.804 5.36227 211.098 5.36227C211.456 5.36227 211.74 5.4569 211.95 5.64615C212.16 5.83541 212.328 6.17185 212.455 6.6555L214.536 17.0644C214.62 17.4219 214.599 17.7163 214.473 17.9476C214.368 18.1578 214.179 18.2945 213.905 18.3576C213.632 18.3997 213.39 18.3681 213.18 18.263C212.97 18.1368 212.791 17.916 212.644 17.6006C211.592 14.9721 210.657 12.9955 209.837 11.6707C209.016 10.3459 208.186 9.46275 207.345 9.02116C206.504 8.57957 205.515 8.35877 204.38 8.35877H199.365V47.2186C199.365 47.5971 199.48 47.902 199.712 48.1333C199.943 48.3436 200.29 48.5013 200.752 48.6065L203.15 48.985C203.717 49.1322 204.001 49.4266 204.001 49.8681C204.001 50.3938 203.654 50.6567 202.96 50.6567H188.735C188.356 50.6567 188.083 50.5831 187.915 50.4359C187.747 50.2887 187.663 50.0995 187.663 49.8681C187.663 49.4266 187.946 49.1322 188.514 48.985L190.911 48.6065C191.374 48.5013 191.721 48.3436 191.952 48.1333C192.205 47.902 192.331 47.5971 192.331 47.2186V8.35877H187.284C186.149 8.35877 185.16 8.59008 184.319 9.0527C183.478 9.51532 182.647 10.409 181.827 11.7338C181.007 13.0585 180.071 15.0142 179.02 17.6006C178.894 17.916 178.715 18.1368 178.484 18.263C178.274 18.3681 178.042 18.3997 177.79 18.3576C177.496 18.2945 177.296 18.1578 177.191 17.9476C177.085 17.7163 177.064 17.4219 177.128 17.0644L179.241 6.6555C179.346 6.17185 179.504 5.83541 179.714 5.64615C179.924 5.4569 180.208 5.36227 180.566 5.36227C180.86 5.36227 181.144 5.4569 181.417 5.64615C181.691 5.83541 182.017 6.02466 182.395 6.21391C182.774 6.40316 183.247 6.49779 183.814 6.49779Z" fill="#EAE5E1"/>
<path d="M138.658 51.5398C136.724 51.5398 135.094 51.2875 133.769 50.7828C132.465 50.2781 131.414 49.784 130.615 49.3003C129.837 48.7957 129.29 48.5433 128.975 48.5433C128.701 48.5433 128.449 48.701 128.218 49.0165C128.007 49.3108 127.797 49.6578 127.587 50.0573C127.377 50.4569 127.156 50.8038 126.924 51.0982C126.693 51.4137 126.441 51.5714 126.167 51.5714C125.915 51.5714 125.694 51.4873 125.505 51.319C125.337 51.1508 125.211 50.888 125.127 50.5305L122.729 39.6169C122.666 39.3225 122.687 39.0807 122.792 38.8914C122.898 38.6812 123.076 38.534 123.329 38.4499C123.602 38.3447 123.844 38.3552 124.054 38.4814C124.285 38.5865 124.475 38.7968 124.622 39.1122C125.863 41.7197 127.219 43.8015 128.691 45.3576C130.163 46.8926 131.698 47.9966 133.296 48.6695C134.915 49.3424 136.566 49.6788 138.248 49.6788C140.603 49.6788 142.464 49.027 143.831 47.7232C145.219 46.4195 145.913 44.6531 145.913 42.4242C145.934 41.0573 145.639 39.7957 145.03 38.6391C144.42 37.4615 143.305 36.3471 141.686 35.2957C140.088 34.2232 137.806 33.1613 134.842 32.1099C131.666 30.9954 129.122 29.7653 127.208 28.4195C125.316 27.0527 123.939 25.5176 123.076 23.8143C122.235 22.1111 121.815 20.1765 121.815 18.0106C121.815 15.5503 122.393 13.4055 123.55 11.576C124.727 9.72554 126.346 8.29564 128.407 7.28629C130.489 6.25592 132.865 5.74073 135.535 5.74073C137.512 5.74073 139.121 5.97204 140.361 6.43465C141.602 6.87624 142.59 7.32835 143.326 7.79096C144.062 8.25358 144.641 8.48489 145.061 8.48489C145.419 8.48489 145.724 8.25358 145.976 7.79096C146.249 7.32835 146.512 6.86573 146.764 6.40311C147.038 5.91947 147.374 5.67764 147.774 5.67764C148.026 5.67764 148.236 5.76176 148.405 5.92998C148.594 6.0982 148.752 6.40311 148.878 6.8447L152 18.0421C152.084 18.3576 152.074 18.6414 151.969 18.8938C151.885 19.1251 151.716 19.2933 151.464 19.3984C151.191 19.4826 150.938 19.472 150.707 19.3669C150.497 19.2407 150.308 19.041 150.139 18.7676C148.773 15.9498 147.332 13.7314 145.818 12.1122C144.325 10.472 142.759 9.30498 141.118 8.61106C139.499 7.91713 137.806 7.57017 136.04 7.57017C133.643 7.57017 131.698 8.28512 130.205 9.71503C128.712 11.1449 127.965 13.069 127.965 15.4872C127.965 16.8961 128.27 18.2104 128.88 19.43C129.49 20.6496 130.573 21.8062 132.129 22.8996C133.685 23.9931 135.893 25.076 138.753 26.1485C142.054 27.3681 144.651 28.6613 146.544 30.0281C148.457 31.3739 149.824 32.8564 150.644 34.4756C151.464 36.0737 151.864 37.8716 151.843 39.8693C151.843 42.0141 151.327 43.9697 150.297 45.7361C149.267 47.5024 147.763 48.9113 145.787 49.9627C143.831 51.0141 141.455 51.5398 138.658 51.5398Z" fill="#EAE5E1"/>
<path d="M855.157 80.67L860.493 89.456L865.875 80.67H867.623L861.298 90.928V97H859.688V90.882L853.386 80.67H855.157Z" fill="#BF9B5F"/>
<path d="M834.997 94.608C833.479 96.2793 831.731 97.115 829.753 97.115C828.649 97.115 827.629 96.8773 826.694 96.402C825.774 95.9267 824.969 95.298 824.279 94.516C823.604 93.734 823.075 92.8523 822.692 91.871C822.308 90.8743 822.117 89.8547 822.117 88.812C822.117 87.7233 822.301 86.6807 822.669 85.684C823.052 84.6873 823.581 83.8133 824.256 83.062C824.93 82.2953 825.728 81.6897 826.648 81.245C827.568 80.785 828.572 80.555 829.661 80.555C830.458 80.555 831.186 80.647 831.846 80.831C832.505 80.9997 833.088 81.245 833.594 81.567C834.115 81.8737 834.56 82.2493 834.928 82.694C835.311 83.1233 835.633 83.5987 835.894 84.12L834.652 84.948C834.115 83.936 833.417 83.1923 832.559 82.717C831.7 82.2417 830.726 82.004 829.638 82.004C828.733 82.004 827.913 82.1957 827.177 82.579C826.456 82.9623 825.835 83.476 825.314 84.12C824.808 84.7487 824.417 85.477 824.141 86.305C823.865 87.1177 823.727 87.961 823.727 88.835C823.727 89.755 823.88 90.629 824.187 91.457C824.509 92.285 824.946 93.0133 825.498 93.642C826.05 94.2553 826.694 94.746 827.43 95.114C828.181 95.482 828.994 95.666 829.868 95.666C830.803 95.666 831.692 95.4513 832.536 95.022C833.394 94.5773 834.215 93.8797 834.997 92.929V90.215H831.363V88.973H836.354V97H834.997V94.608Z" fill="#BF9B5F"/>
<path d="M796.403 97.115C795.268 97.115 794.226 96.885 793.275 96.425C792.34 95.9497 791.535 95.3287 790.86 94.562C790.185 93.78 789.664 92.8907 789.296 91.894C788.928 90.8973 788.744 89.8777 788.744 88.835C788.744 87.7463 788.936 86.7037 789.319 85.707C789.718 84.7103 790.262 83.8287 790.952 83.062C791.642 82.2953 792.455 81.6897 793.39 81.245C794.325 80.785 795.337 80.555 796.426 80.555C797.561 80.555 798.596 80.8003 799.531 81.291C800.482 81.7663 801.287 82.395 801.946 83.177C802.621 83.959 803.142 84.8483 803.51 85.845C803.878 86.8263 804.062 87.8307 804.062 88.858C804.062 89.9467 803.863 90.9893 803.464 91.986C803.081 92.9827 802.544 93.8643 801.854 94.631C801.179 95.3823 800.374 95.988 799.439 96.448C798.504 96.8927 797.492 97.115 796.403 97.115ZM790.354 88.835C790.354 89.7243 790.5 90.583 790.791 91.411C791.082 92.2237 791.496 92.952 792.033 93.596C792.57 94.2247 793.206 94.7307 793.942 95.114C794.678 95.482 795.498 95.666 796.403 95.666C797.323 95.666 798.159 95.4667 798.91 95.068C799.661 94.6693 800.298 94.148 800.819 93.504C801.34 92.86 801.739 92.1317 802.015 91.319C802.306 90.5063 802.452 89.6783 802.452 88.835C802.452 87.9457 802.299 87.0947 801.992 86.282C801.701 85.454 801.287 84.7257 800.75 84.097C800.213 83.4683 799.577 82.97 798.841 82.602C798.105 82.2187 797.292 82.027 796.403 82.027C795.483 82.027 794.647 82.2263 793.896 82.625C793.145 83.0083 792.508 83.522 791.987 84.166C791.466 84.81 791.059 85.5383 790.768 86.351C790.492 87.1637 790.354 87.9917 790.354 88.835Z" fill="#BF9B5F"/>
<path d="M761.349 97V80.67H762.959V95.574H772.389V97H761.349Z" fill="#BF9B5F"/>
<path d="M734.555 97.115C733.42 97.115 732.377 96.885 731.427 96.425C730.491 95.9497 729.686 95.3287 729.012 94.562C728.337 93.78 727.816 92.8907 727.448 91.894C727.08 90.8973 726.896 89.8777 726.896 88.835C726.896 87.7463 727.087 86.7037 727.471 85.707C727.869 84.7103 728.414 83.8287 729.104 83.062C729.794 82.2953 730.606 81.6897 731.542 81.245C732.477 80.785 733.489 80.555 734.578 80.555C735.712 80.555 736.747 80.8003 737.683 81.291C738.633 81.7663 739.438 82.395 740.098 83.177C740.772 83.959 741.294 84.8483 741.662 85.845C742.03 86.8263 742.214 87.8307 742.214 88.858C742.214 89.9467 742.014 90.9893 741.616 91.986C741.232 92.9827 740.696 93.8643 740.006 94.631C739.331 95.3823 738.526 95.988 737.591 96.448C736.655 96.8927 735.643 97.115 734.555 97.115ZM728.506 88.835C728.506 89.7243 728.651 90.583 728.943 91.411C729.234 92.2237 729.648 92.952 730.185 93.596C730.721 94.2247 731.358 94.7307 732.094 95.114C732.83 95.482 733.65 95.666 734.555 95.666C735.475 95.666 736.31 95.4667 737.062 95.068C737.813 94.6693 738.449 94.148 738.971 93.504C739.492 92.86 739.891 92.1317 740.167 91.319C740.458 90.5063 740.604 89.6783 740.604 88.835C740.604 87.9457 740.45 87.0947 740.144 86.282C739.852 85.454 739.438 84.7257 738.902 84.097C738.365 83.4683 737.729 82.97 736.993 82.602C736.257 82.2187 735.444 82.027 734.555 82.027C733.635 82.027 732.799 82.2263 732.048 82.625C731.296 83.0083 730.66 83.522 730.139 84.166C729.617 84.81 729.211 85.5383 728.92 86.351C728.644 87.1637 728.506 87.9917 728.506 88.835Z" fill="#BF9B5F"/>
<path d="M695.72 83.66V97H694.11V80.67H695.352L706.162 94.263V80.693H707.772V97H706.369L695.72 83.66Z" fill="#BF9B5F"/>
<path d="M673.91 80.67V97H672.323V89.364H662.64V97H661.03V80.67H662.64V87.938H672.323V80.67H673.91Z" fill="#BF9B5F"/>
<path d="M628.081 88.72C628.081 87.7387 628.25 86.765 628.587 85.799C628.94 84.8177 629.446 83.9437 630.105 83.177C630.764 82.4103 631.577 81.7893 632.543 81.314C633.509 80.8233 634.605 80.578 635.832 80.578C637.289 80.578 638.531 80.9077 639.558 81.567C640.601 82.2263 641.367 83.085 641.858 84.143L640.593 84.925C640.332 84.3883 640.01 83.936 639.627 83.568C639.259 83.2 638.86 82.901 638.431 82.671C638.002 82.441 637.557 82.28 637.097 82.188C636.637 82.0807 636.185 82.027 635.74 82.027C634.759 82.027 633.892 82.2263 633.141 82.625C632.39 83.0237 631.753 83.545 631.232 84.189C630.726 84.833 630.343 85.5613 630.082 86.374C629.821 87.1713 629.691 87.984 629.691 88.812C629.691 89.7167 629.844 90.583 630.151 91.411C630.473 92.239 630.902 92.975 631.439 93.619C631.991 94.2477 632.635 94.7537 633.371 95.137C634.122 95.505 634.935 95.689 635.809 95.689C636.269 95.689 636.737 95.6353 637.212 95.528C637.703 95.4053 638.17 95.2213 638.615 94.976C639.075 94.7153 639.497 94.401 639.88 94.033C640.263 93.6497 640.585 93.1897 640.846 92.653L642.18 93.343C641.919 93.9563 641.551 94.5007 641.076 94.976C640.601 95.436 640.072 95.827 639.489 96.149C638.906 96.471 638.285 96.7163 637.626 96.885C636.982 97.0537 636.346 97.138 635.717 97.138C634.598 97.138 633.57 96.8927 632.635 96.402C631.7 95.9113 630.895 95.275 630.22 94.493C629.545 93.6957 629.016 92.7987 628.633 91.802C628.265 90.79 628.081 89.7627 628.081 88.72Z" fill="#BF9B5F"/>
<path d="M610.354 95.574V97H599.383V80.67H610.147V82.096H600.993V87.984H608.974V89.341H600.993V95.574H610.354Z" fill="#BF9B5F"/>
<path d="M580.837 82.096H575.018V97H573.408V82.096H567.589V80.67H580.837V82.096Z" fill="#BF9B5F"/>
<path d="M516.808 97V80.67H523.708C524.413 80.67 525.057 80.8233 525.64 81.13C526.238 81.4213 526.752 81.8123 527.181 82.303C527.61 82.7783 527.94 83.3226 528.17 83.936C528.415 84.5493 528.538 85.1703 528.538 85.799C528.538 86.397 528.446 86.972 528.262 87.524C528.093 88.0606 527.848 88.5513 527.526 88.996C527.219 89.4253 526.844 89.7933 526.399 90.1C525.954 90.3913 525.456 90.5907 524.904 90.698L528.906 97H527.089L523.248 90.974H518.418V97H516.808ZM518.418 89.548H523.754C524.229 89.548 524.659 89.4483 525.042 89.249C525.441 89.0343 525.778 88.7507 526.054 88.398C526.33 88.0453 526.545 87.6467 526.698 87.202C526.851 86.7573 526.928 86.2897 526.928 85.799C526.928 85.3083 526.836 84.8406 526.652 84.396C526.483 83.936 526.246 83.5373 525.939 83.2C525.648 82.8626 525.295 82.5943 524.881 82.395C524.482 82.1956 524.061 82.096 523.616 82.096H518.418V89.548Z" fill="#BF9B5F"/>
<path d="M497.663 95.574V97H486.692V80.67H497.456V82.096H488.302V87.984H496.283V89.341H488.302V95.574H497.663Z" fill="#BF9B5F"/>
<path d="M456.285 97V80.67H463.047C463.752 80.67 464.396 80.8233 464.979 81.13C465.577 81.4213 466.09 81.8123 466.52 82.303C466.949 82.7783 467.286 83.3226 467.532 83.936C467.777 84.5493 467.9 85.1703 467.9 85.799C467.9 86.4736 467.785 87.1253 467.555 87.754C467.325 88.3673 467.003 88.9116 466.589 89.387C466.175 89.8623 465.676 90.2456 465.094 90.537C464.526 90.8283 463.89 90.974 463.185 90.974H457.895V97H456.285ZM457.895 89.548H463.116C463.591 89.548 464.02 89.4483 464.404 89.249C464.802 89.0343 465.14 88.7583 465.416 88.421C465.692 88.0683 465.906 87.6696 466.06 87.225C466.213 86.765 466.29 86.2897 466.29 85.799C466.29 85.293 466.198 84.8176 466.014 84.373C465.845 83.913 465.607 83.5143 465.301 83.177C465.009 82.8397 464.657 82.579 464.243 82.395C463.844 82.1956 463.422 82.096 462.978 82.096H457.895V89.548Z" fill="#BF9B5F"/>
<path d="M434.482 97V83.591L428.525 93.964H427.582L421.625 83.591V97H420.015V80.67H421.671L428.042 91.848L434.459 80.67H436.092V97H434.482Z" fill="#BF9B5F"/>
<path d="M393.432 80.67H394.789L401.574 97H399.872L397.756 91.894H390.419L388.326 97H386.601L393.432 80.67ZM397.388 90.629L394.099 82.556L390.764 90.629H397.388Z" fill="#BF9B5F"/>
<path d="M357.492 97V80.67H364.392C365.098 80.67 365.742 80.8233 366.324 81.13C366.922 81.4213 367.436 81.8123 367.865 82.303C368.295 82.7783 368.624 83.3226 368.854 83.936C369.1 84.5493 369.222 85.1703 369.222 85.799C369.222 86.397 369.13 86.972 368.946 87.524C368.778 88.0606 368.532 88.5513 368.21 88.996C367.904 89.4253 367.528 89.7933 367.083 90.1C366.639 90.3913 366.14 90.5907 365.588 90.698L369.59 97H367.773L363.932 90.974H359.102V97H357.492ZM359.102 89.548H364.438C364.914 89.548 365.343 89.4483 365.726 89.249C366.125 89.0343 366.462 88.7507 366.738 88.398C367.014 88.0453 367.229 87.6467 367.382 87.202C367.536 86.7573 367.612 86.2897 367.612 85.799C367.612 85.3083 367.52 84.8406 367.336 84.396C367.168 83.936 366.93 83.5373 366.623 83.2C366.332 82.8626 365.979 82.5943 365.565 82.395C365.167 82.1956 364.745 82.096 364.3 82.096H359.102V89.548Z" fill="#BF9B5F"/>
<path d="M338.348 95.574V97H327.377V80.67H338.141V82.096H328.987V87.984H336.968V89.341H328.987V95.574H338.348Z" fill="#BF9B5F"/>
<path d="M295.12 83.66V97H293.51V80.67H294.752L305.562 94.263V80.693H307.172V97H305.769L295.12 83.66Z" fill="#BF9B5F"/>
<path d="M272.985 83.729C272.525 83.2077 271.911 82.786 271.145 82.464C270.378 82.142 269.504 81.981 268.523 81.981C267.081 81.981 266.031 82.257 265.372 82.809C264.712 83.3457 264.383 84.0817 264.383 85.017C264.383 85.5077 264.467 85.914 264.636 86.236C264.82 86.5427 265.096 86.811 265.464 87.041C265.832 87.271 266.299 87.4703 266.867 87.639C267.449 87.8077 268.132 87.9763 268.914 88.145C269.788 88.329 270.57 88.536 271.26 88.766C271.965 88.996 272.563 89.2873 273.054 89.64C273.544 89.9773 273.92 90.3913 274.181 90.882C274.441 91.3727 274.572 91.986 274.572 92.722C274.572 93.4733 274.426 94.125 274.135 94.677C273.843 95.229 273.437 95.689 272.916 96.057C272.394 96.425 271.773 96.701 271.053 96.885C270.332 97.0537 269.542 97.138 268.684 97.138C266.154 97.138 263.969 96.3483 262.129 94.769L262.934 93.458C263.225 93.7647 263.57 94.056 263.969 94.332C264.383 94.608 264.835 94.8533 265.326 95.068C265.832 95.2673 266.368 95.4283 266.936 95.551C267.503 95.6583 268.101 95.712 268.73 95.712C270.033 95.712 271.045 95.482 271.766 95.022C272.502 94.5467 272.87 93.8337 272.87 92.883C272.87 92.377 272.762 91.9553 272.548 91.618C272.348 91.2653 272.042 90.9663 271.628 90.721C271.214 90.4603 270.7 90.238 270.087 90.054C269.473 89.87 268.76 89.686 267.948 89.502C267.089 89.3027 266.338 89.0957 265.694 88.881C265.05 88.6663 264.505 88.398 264.061 88.076C263.616 87.754 263.279 87.3707 263.049 86.926C262.834 86.466 262.727 85.9063 262.727 85.247C262.727 84.4957 262.865 83.8287 263.141 83.246C263.432 82.648 263.838 82.1573 264.36 81.774C264.881 81.3753 265.494 81.0763 266.2 80.877C266.905 80.6623 267.687 80.555 268.546 80.555C269.634 80.555 270.6 80.7237 271.444 81.061C272.302 81.383 273.077 81.843 273.767 82.441L272.985 83.729Z" fill="#BF9B5F"/>
<path d="M241.635 97V80.67H243.245V97H241.635Z" fill="#BF9B5F"/>
<path d="M222.49 95.574V97H211.519V80.67H222.283V82.096H213.129V87.984H221.11V89.341H213.129V95.574H222.49Z" fill="#BF9B5F"/>
<path d="M157.3 83.66V97H155.69V80.67H156.932L167.742 94.263V80.693H169.352V97H167.949L157.3 83.66Z" fill="#BF9B5F"/>
<path d="M129.107 80.67H130.464L137.249 97H135.547L133.431 91.894H126.094L124.001 97H122.276L129.107 80.67ZM133.063 90.629L129.774 82.556L126.439 90.629H133.063Z" fill="#BF9B5F"/>
<path d="M88.5151 0V58.9746H87.5151V0H88.5151Z" fill="#BF9B5F"/>
<path d="M42.7849 25.1581L49.4396 36.7013H10.5413L15.0033 28.9908L16.8984 25.7066L17.2138 25.1581H42.7849ZM16.8998 30.0864L16.8984 30.0878L14.3396 34.5101H45.6481L41.5206 27.3494H18.4781L16.8998 30.0864Z" fill="#BF9B5F"/>
<path d="M38.391 17.5476H21.5945L29.992 3L38.391 17.5476ZM25.3887 15.3577H34.5967L29.992 7.38116L25.3887 15.3577Z" fill="#BF9B5F"/>
<path d="M53.8217 44.3109L54.1371 44.8581L59.9869 54.9834H0L5.83195 44.8594L6.14871 44.3109H53.8217ZM3.79015 52.7922H56.1913L52.5574 46.5022H7.41575L3.79015 52.7922Z" fill="#BF9B5F"/>
</svg>
