<svg width="41" height="41" viewBox="0 0 41 41" fill="none" xmlns="http://www.w3.org/2000/svg">
<path opacity="0.2" d="M6.40625 14.0938H34.5938V7.6875C34.5938 7.34769 34.4588 7.0218 34.2185 6.78152C33.9782 6.54124 33.6523 6.40625 33.3125 6.40625H7.6875C7.34769 6.40625 7.0218 6.54124 6.78152 6.78152C6.54124 7.0218 6.40625 7.34769 6.40625 7.6875V14.0938Z" fill="#343330"/>
<path d="M33.3125 6.40625H7.6875C6.97989 6.40625 6.40625 6.97989 6.40625 7.6875V33.3125C6.40625 34.0201 6.97989 34.5938 7.6875 34.5938H33.3125C34.0201 34.5938 34.5938 34.0201 34.5938 33.3125V7.6875C34.5938 6.97989 34.0201 6.40625 33.3125 6.40625Z" stroke="#343330" stroke-linecap="round" stroke-linejoin="round"/>
<path d="M28.1875 3.84375V8.96875" stroke="#343330" stroke-linecap="round" stroke-linejoin="round"/>
<path d="M12.8125 3.84375V8.96875" stroke="#343330" stroke-linecap="round" stroke-linejoin="round"/>
<path d="M6.40625 14.0938H34.5938" stroke="#343330" stroke-linecap="round" stroke-linejoin="round"/>
<path d="M20.5 23.0625C21.5614 23.0625 22.4219 22.202 22.4219 21.1406C22.4219 20.0792 21.5614 19.2188 20.5 19.2188C19.4386 19.2188 18.5781 20.0792 18.5781 21.1406C18.5781 22.202 19.4386 23.0625 20.5 23.0625Z" fill="#343330"/>
<path d="M27.5469 23.0625C28.6083 23.0625 29.4688 22.202 29.4688 21.1406C29.4688 20.0792 28.6083 19.2188 27.5469 19.2188C26.4855 19.2188 25.625 20.0792 25.625 21.1406C25.625 22.202 26.4855 23.0625 27.5469 23.0625Z" fill="#343330"/>
<path d="M13.4531 29.4688C14.5145 29.4688 15.375 28.6083 15.375 27.5469C15.375 26.4855 14.5145 25.625 13.4531 25.625C12.3917 25.625 11.5312 26.4855 11.5312 27.5469C11.5312 28.6083 12.3917 29.4688 13.4531 29.4688Z" fill="#343330"/>
<path d="M20.5 29.4688C21.5614 29.4688 22.4219 28.6083 22.4219 27.5469C22.4219 26.4855 21.5614 25.625 20.5 25.625C19.4386 25.625 18.5781 26.4855 18.5781 27.5469C18.5781 28.6083 19.4386 29.4688 20.5 29.4688Z" fill="#343330"/>
<path d="M27.5469 29.4688C28.6083 29.4688 29.4688 28.6083 29.4688 27.5469C29.4688 26.4855 28.6083 25.625 27.5469 25.625C26.4855 25.625 25.625 26.4855 25.625 27.5469C25.625 28.6083 26.4855 29.4688 27.5469 29.4688Z" fill="#343330"/>
</svg>
