<svg width="41" height="41" viewBox="0 0 41 41" fill="none" xmlns="http://www.w3.org/2000/svg">
<path opacity="0.2" d="M20.5 35.875C28.9914 35.875 35.875 28.9914 35.875 20.5C35.875 12.0086 28.9914 5.125 20.5 5.125C12.0086 5.125 5.125 12.0086 5.125 20.5C5.125 28.9914 12.0086 35.875 20.5 35.875Z" fill="#343330"/>
<path d="M20.5 35.875C28.9914 35.875 35.875 28.9914 35.875 20.5C35.875 12.0086 28.9914 5.125 20.5 5.125C12.0086 5.125 5.125 12.0086 5.125 20.5C5.125 28.9914 12.0086 35.875 20.5 35.875Z" stroke="#343330" stroke-linecap="round" stroke-linejoin="round"/>
<path d="M23.0625 14.0938L16.6562 20.5L23.0625 26.9062" stroke="#343330" stroke-linecap="round" stroke-linejoin="round"/>
</svg>
