<svg width="41" height="41" viewBox="0 0 41 41" fill="none" xmlns="http://www.w3.org/2000/svg">
<path opacity="0.2" d="M20.5 8.96875C7.6875 8.96875 2.5625 20.5 2.5625 20.5C2.5625 20.5 7.6875 32.0312 20.5 32.0312C33.3125 32.0312 38.4375 20.5 38.4375 20.5C38.4375 20.5 33.3125 8.96875 20.5 8.96875ZM20.5 26.9062C19.233 26.9062 17.9944 26.5305 16.9409 25.8266C15.8874 25.1227 15.0663 24.1222 14.5814 22.9516C14.0965 21.781 13.9697 20.4929 14.2168 19.2502C14.464 18.0075 15.0742 16.866 15.9701 15.9701C16.866 15.0742 18.0075 14.464 19.2502 14.2168C20.4929 13.9697 21.781 14.0965 22.9516 14.5814C24.1222 15.0663 25.1227 15.8874 25.8266 16.9409C26.5305 17.9944 26.9062 19.233 26.9062 20.5C26.9062 22.199 26.2313 23.8285 25.0299 25.0299C23.8285 26.2313 22.199 26.9062 20.5 26.9062Z" fill="#343330"/>
<path d="M20.5 8.96875C7.6875 8.96875 2.5625 20.5 2.5625 20.5C2.5625 20.5 7.6875 32.0312 20.5 32.0312C33.3125 32.0312 38.4375 20.5 38.4375 20.5C38.4375 20.5 33.3125 8.96875 20.5 8.96875Z" stroke="#343330" stroke-linecap="round" stroke-linejoin="round"/>
<path d="M20.5 26.9062C24.0381 26.9062 26.9062 24.0381 26.9062 20.5C26.9062 16.9619 24.0381 14.0938 20.5 14.0938C16.9619 14.0938 14.0938 16.9619 14.0938 20.5C14.0938 24.0381 16.9619 26.9062 20.5 26.9062Z" stroke="#343330" stroke-linecap="round" stroke-linejoin="round"/>
</svg>
