<svg width="41" height="41" viewBox="0 0 41 41" fill="none" xmlns="http://www.w3.org/2000/svg">
<path opacity="0.2" d="M20.5 8.96875C7.6875 8.96875 2.5625 20.5 2.5625 20.5C2.5625 20.5 7.6875 32.0312 20.5 32.0312C33.3125 32.0312 38.4375 20.5 38.4375 20.5C38.4375 20.5 33.3125 8.96875 20.5 8.96875ZM20.5 26.9062C19.233 26.9062 17.9944 26.5305 16.9409 25.8266C15.8874 25.1227 15.0663 24.1222 14.5814 22.9516C14.0965 21.781 13.9697 20.4929 14.2168 19.2502C14.464 18.0075 15.0742 16.866 15.9701 15.9701C16.866 15.0742 18.0075 14.464 19.2502 14.2168C20.4929 13.9697 21.781 14.0965 22.9516 14.5814C24.1222 15.0663 25.1227 15.8874 25.8266 16.9409C26.5305 17.9944 26.9062 19.233 26.9062 20.5C26.9062 22.199 26.2313 23.8285 25.0299 25.0299C23.8285 26.2313 22.199 26.9062 20.5 26.9062Z" fill="#343330"/>
<path d="M7.6875 6.40625L33.3125 34.5938" stroke="#343330" stroke-linecap="round" stroke-linejoin="round"/>
<path d="M24.8104 25.2405C23.5531 26.3836 21.8933 26.9803 20.196 26.8995C18.4987 26.8187 16.903 26.067 15.76 24.8097C14.617 23.5524 14.0202 21.8926 14.101 20.1953C14.1818 18.498 14.9335 16.9023 16.1908 15.7593" stroke="#343330" stroke-linecap="round" stroke-linejoin="round"/>
<path d="M21.7051 14.2075C23.067 14.4683 24.3076 15.164 25.2404 16.1901C26.1732 17.2162 26.7479 18.5173 26.8781 19.8979" stroke="#343330" stroke-linecap="round" stroke-linejoin="round"/>
<path d="M33.4097 27.0824C36.9011 23.9562 38.437 20.5 38.437 20.5C38.437 20.5 33.312 8.96877 20.4995 8.96877C19.39 8.96725 18.2822 9.05724 17.1875 9.23783" stroke="#343330" stroke-linecap="round" stroke-linejoin="round"/>
<path d="M11.8516 10.9868C5.32199 14.2924 2.5625 20.5001 2.5625 20.5001C2.5625 20.5001 7.6875 32.0313 20.5 32.0313C23.5021 32.0549 26.4667 31.3632 29.1484 30.0134" stroke="#343330" stroke-linecap="round" stroke-linejoin="round"/>
</svg>
