<svg width="41" height="41" viewBox="0 0 41 41" fill="none" xmlns="http://www.w3.org/2000/svg">
<path opacity="0.2" d="M24.3438 5.125V14.0938H33.3125L24.3438 5.125Z" fill="#343330"/>
<path d="M7.6875 17.9375V6.40625C7.6875 6.06644 7.82249 5.74055 8.06277 5.50027C8.30305 5.25999 8.62894 5.125 8.96875 5.125H24.3438L33.3125 14.0938V17.9375" stroke="#343330" stroke-linecap="round" stroke-linejoin="round"/>
<path d="M24.3438 5.125V14.0938H33.3125" stroke="#343330" stroke-linecap="round" stroke-linejoin="round"/>
<path d="M23.7031 33.3125H19.2188V24.3438" stroke="#343330" stroke-linecap="round" stroke-linejoin="round"/>
<path d="M7.6875 24.3438L14.0938 33.3125" stroke="#343330" stroke-linecap="round" stroke-linejoin="round"/>
<path d="M14.0938 24.3438L7.6875 33.3125" stroke="#343330" stroke-linecap="round" stroke-linejoin="round"/>
<path d="M32.6558 24.6001C32.6558 24.6001 27.9424 23.354 27.5628 26.3618C27.1832 29.3695 33.7176 27.9826 33.2932 31.2818C32.8976 34.3504 28.2034 33.0435 28.2034 33.0435" stroke="#343330" stroke-linecap="round" stroke-linejoin="round"/>
</svg>
