<svg width="41" height="41" viewBox="0 0 41 41" fill="none" xmlns="http://www.w3.org/2000/svg">
<path d="M20.5 29.4688C21.2076 29.4688 21.7812 28.8951 21.7812 28.1875C21.7812 27.4799 21.2076 26.9062 20.5 26.9062C19.7924 26.9062 19.2188 27.4799 19.2188 28.1875C19.2188 28.8951 19.7924 29.4688 20.5 29.4688Z" fill="#343330"/>
<path d="M20.5 23.0625V21.7812C23.33 21.7812 25.625 19.7729 25.625 17.2969C25.625 14.8209 23.33 12.8125 20.5 12.8125C17.67 12.8125 15.375 14.8209 15.375 17.2969V17.9375" stroke="#343330" stroke-linecap="round" stroke-linejoin="round"/>
<path d="M20.5 35.875C28.9914 35.875 35.875 28.9914 35.875 20.5C35.875 12.0086 28.9914 5.125 20.5 5.125C12.0086 5.125 5.125 12.0086 5.125 20.5C5.125 28.9914 12.0086 35.875 20.5 35.875Z" stroke="#343330" stroke-linecap="round" stroke-linejoin="round"/>
</svg>
